<svg xmlns="http://www.w3.org/2000/svg" width="1600" height="900" viewBox="0 0 1600 900" role="img" aria-labelledby="title desc">
  <title id="title">Huijiang Wang European Footprint</title>
  <desc id="desc">A 16:9 Europe map with colored countries and straight callout lines showing Huijiang Wang's MSCA trainings, secondments, and postdoctoral locations.</desc>
  <!-- Map geometry derived from Natural Earth public domain Admin 0 countries. -->
  <defs>
    <clipPath id="map-clip"><rect x="430" y="82" width="1110" height="710" rx="16"/></clipPath>
    <marker id="arrow" markerWidth="12" markerHeight="12" refX="10" refY="5" orient="auto" markerUnits="strokeWidth">
      <path d="M0,0 L10,5 L0,10 Z" fill="#c73a64"/>
    </marker>
    <filter id="shadow" x="-20%" y="-20%" width="140%" height="140%">
      <feDropShadow dx="0" dy="8" stdDeviation="9" flood-color="#23313a" flood-opacity="0.18"/>
    </filter>
  </defs>
  <style>
    .bg { fill: #f7fafb; }
    .title { fill: #c73a64; font: 800 46px Helvetica, Arial, sans-serif; }
    .subtitle { fill: #52616b; font: 500 22px Helvetica, Arial, sans-serif; }
    .map-frame { fill: #eaf2f5; stroke: #1f2a30; stroke-width: 2; }
    .country { stroke: #20272c; stroke-width: 1.15; vector-effect: non-scaling-stroke; }
    .visited { stroke-width: 1.45; }
    .callout-line { stroke: #c73a64; stroke-width: 3; marker-end: url(#arrow); }
    .callout-box { fill: #ffffff; stroke: #c73a64; stroke-width: 2; filter: url(#shadow); }
    .callout-title { fill: #24313a; font: 800 20px Helvetica, Arial, sans-serif; }
    .callout-detail { fill: #52616b; font: 600 16px Helvetica, Arial, sans-serif; }
    .pin circle { fill: #c73a64; stroke: #ffffff; stroke-width: 4; }
    .pin .pin-inner { fill: #ffffff; stroke: none; }
    .legend-title { fill: #24313a; font: 800 18px Helvetica, Arial, sans-serif; }
    .legend-text { fill: #52616b; font: 600 15px Helvetica, Arial, sans-serif; }
    .credit { fill: #82909a; font: 500 12px Helvetica, Arial, sans-serif; }
  </style>

  <rect class="bg" width="1600" height="900" rx="0"/>
  <text class="title" x="52" y="76">European Footprint</text>
  <text class="subtitle" x="54" y="112">MSCA trainings, secondments, and postdoctoral connections across Europe</text>

  <rect class="map-frame" x="430" y="82" width="1110" height="710" rx="16"/>
  <g clip-path="url(#map-clip)">
    <path class="country" data-name="Russia" d="M4962.9,-91.6 L4993.0,-101.5 L4993.0,-85.3 L4967.1,-84.1 L4962.9,-91.6 Z M1897.0,492.6 L1886.2,506.6 L1863.3,510.5 L1839.8,534.9 L1861.3,557.4 L1859.0,573.3 L1884.8,601.2 L1884.8,601.2 L1870.7,610.7 L1866.6,616.7 L1856.1,615.1 L1839.9,600.7 L1833.2,599.9 L1818.4,594.5 L1811.1,584.8 L1789.1,579.8 L1774.7,583.5 L1770.6,579.1 L1738.4,567.8 L1703.6,564.0 L1683.6,559.9 L1680.7,562.7 L1650.5,542.7 L1623.5,533.8 L1603.1,519.9 L1620.3,516.1 L1639.9,496.3 L1626.7,487.0 L1661.6,477.3 L1661.0,472.2 L1639.7,476.0 L1640.5,465.5 L1652.7,458.9 L1675.5,457.1 L1679.3,449.2 L1674.0,436.2 L1683.6,423.8 L1683.4,416.9 L1648.5,409.2 L1634.7,409.4 L1620.1,398.4 L1601.9,402.1 L1571.9,393.8 L1572.4,389.1 L1564.0,378.9 L1545.1,377.7 L1543.2,370.4 L1549.1,365.6 L1534.0,352.2 L1509.5,354.5 L1502.3,353.3 L1496.3,358.7 L1487.5,357.7 L1487.5,357.7 L1481.6,342.6 L1476.1,334.7 L1480.6,332.5 L1499.7,333.3 L1508.9,328.2 L1502.1,321.9 L1486.2,317.7 L1487.6,313.4 L1478.0,309.1 L1463.1,293.6 L1468.2,287.2 L1465.9,276.1 L1442.8,270.5 L1430.4,273.3 L1427.0,267.5 L1402.1,261.5 L1394.5,247.6 L1392.5,236.1 L1381.1,230.6 L1391.2,223.1 L1384.2,201.1 L1401.0,187.5 L1397.5,183.3 L1397.5,183.3 L1424.3,170.2 L1399.6,159.0 L1399.6,159.0 L1450.2,128.8 L1472.2,115.1 L1481.1,103.1 L1446.1,86.9 L1455.7,71.5 L1434.4,53.9 L1450.4,33.6 L1422.9,6.7 L1444.7,-11.2 L1408.5,-26.9 L1411.9,-43.5 L1431.0,-45.7 L1471.3,-55.2 L1471.3,-55.2 L1495.7,-63.4 L1534.5,-49.1 L1599.3,-43.5 L1688.7,-16.7 L1706.8,-5.5 L1708.4,10.3 L1682.1,22.7 L1643.5,29.0 L1537.9,11.0 L1520.5,14.0 L1559.1,31.4 L1560.6,42.3 L1562.2,66.5 L1592.6,73.7 L1611.1,79.9 L1614.1,68.4 L1599.9,58.2 L1614.9,49.3 L1672.1,64.0 L1692.0,58.2 L1676.1,40.9 L1731.2,17.7 L1753.1,19.1 L1775.2,27.4 L1788.9,11.1 L1769.2,-3.0 L1780.8,-17.1 L1763.4,-31.8 L1829.6,-24.2 L1843.1,-11.0 L1813.1,-8.1 L1813.3,5.1 L1831.9,13.2 L1868.5,8.1 L1874.2,-7.0 L1923.6,-18.3 L2006.2,-38.6 L2024.0,-37.4 L2000.7,-23.1 L2030.0,-20.6 L2047.0,-28.7 L2091.3,-29.3 L2126.4,-39.1 L2153.4,-24.9 L2180.3,-40.6 L2155.5,-54.3 L2167.8,-62.1 L2237.7,-54.9 L2270.4,-47.5 L2356.1,-20.5 L2371.9,-32.9 L2347.9,-45.4 L2347.2,-50.4 L2318.7,-52.7 L2326.5,-63.9 L2313.8,-82.4 L2313.1,-89.9 L2356.8,-111.4 L2372.3,-132.9 L2389.9,-137.5 L2452.5,-131.3 L2457.4,-118.1 L2435.0,-98.9 L2449.7,-91.4 L2457.3,-74.9 L2452.0,-42.4 L2478.1,-28.0 L2467.9,-12.2 L2421.6,21.4 L2448.6,24.9 L2458.0,16.4 L2484.0,10.3 L2490.3,-1.4 L2510.8,-12.6 L2497.0,-26.1 L2508.0,-41.7 L2482.2,-43.6 L2476.5,-56.8 L2495.4,-80.6 L2464.7,-99.8 L2507.0,-115.8 L2501.5,-132.6 L2513.3,-133.1 L2525.7,-120.0 L2516.4,-97.2 L2541.7,-92.9 L2530.9,-109.9 L2570.5,-119.2 L2619.6,-120.5 L2663.3,-107.0 L2642.3,-126.7 L2639.9,-151.9 L2681.0,-156.7 L2737.9,-155.6 L2789.2,-158.7 L2770.0,-171.1 L2797.3,-186.6 L2824.5,-187.3 L2870.5,-199.0 L2933.0,-202.2 L2940.8,-208.6 L3002.9,-210.8 L3022.3,-205.5 L3075.4,-218.1 L3118.8,-217.7 L3125.4,-227.9 L3148.0,-238.0 L3203.8,-247.7 L3244.4,-240.0 L3212.2,-234.2 L3265.7,-230.6 L3272.1,-218.9 L3293.7,-224.6 L3362.9,-224.3 L3416.2,-212.8 L3435.2,-203.9 L3429.3,-191.6 L3403.1,-184.6 L3341.0,-171.5 L3323.2,-164.5 L3352.5,-161.2 L3387.5,-155.2 L3408.8,-159.7 L3420.9,-144.5 L3431.3,-150.6 L3469.1,-154.4 L3545.0,-150.5 L3550.7,-139.4 L3649.6,-135.9 L3651.0,-154.0 L3701.2,-149.8 L3738.9,-149.9 L3777.1,-137.5 L3788.0,-122.3 L3774.0,-112.4 L3803.7,-93.8 L3840.9,-84.2 L3863.7,-109.0 L3901.7,-98.4 L3942.0,-104.8 L3987.8,-97.5 L4005.2,-104.1 L4043.9,-100.8 L4026.8,-122.8 L4058.0,-133.0 L4271.7,-117.6 L4291.8,-103.6 L4353.7,-85.5 L4449.2,-90.0 L4496.3,-86.1 L4516.0,-76.3 L4513.1,-59.0 L4542.2,-52.3 L4573.9,-57.1 L4615.8,-57.8 L4660.5,-53.1 L4705.3,-55.7 L4746.5,-34.7 L4775.8,-42.3 L4756.7,-57.4 L4767.2,-67.9 L4842.7,-61.3 L4891.9,-62.7 L4959.9,-51.4 L4993.0,-41.1 L4993.0,53.1 L4992.9,53.3 L4962.5,63.7 L4931.8,61.9 L4953.1,74.5 L4967.2,94.0 L4978.2,100.4 L4980.9,110.2 L4974.8,116.4 L4930.7,111.3 L4864.6,129.1 L4843.6,131.8 L4807.4,148.4 L4773.0,163.0 L4764.3,173.7 L4730.5,157.3 L4668.9,175.9 L4658.1,167.1 L4635.3,177.3 L4603.7,174.0 L4596.1,189.6 L4567.7,212.5 L4568.6,222.0 L4595.5,227.3 L4592.3,261.8 L4570.4,262.6 L4560.2,282.4 L4570.1,292.6 L4528.7,304.7 L4520.5,331.7 L4485.3,337.5 L4478.2,361.5 L4444.1,383.5 L4435.3,367.2 L4425.2,332.7 L4412.0,280.2 L4423.4,247.4 L4443.3,233.2 L4444.6,222.2 L4481.3,216.9 L4523.6,187.1 L4564.3,162.8 L4606.8,143.9 L4625.8,110.6 L4597.1,112.6 L4582.9,132.1 L4522.9,158.0 L4503.5,129.0 L4442.4,137.0 L4383.2,176.6 L4402.8,191.1 L4350.0,197.3 L4313.4,199.7 L4315.1,182.6 L4278.4,179.1 L4249.1,190.7 L4176.7,186.6 L4098.9,193.6 L4022.3,239.8 L3931.7,295.6 L3968.9,298.6 L3980.6,313.4 L4003.5,318.6 L4018.7,306.8 L4044.6,308.3 L4078.8,334.4 L4079.6,354.5 L4061.1,378.1 L4059.1,406.4 L4048.4,444.2 L4012.8,478.4 L4004.8,494.8 L3972.7,522.3 L3940.9,549.6 L3925.6,563.6 L3894.1,577.5 L3879.2,577.8 L3864.3,566.3 L3832.6,583.6 L3828.9,591.4 L3828.9,591.4 L3828.9,591.4 L3828.9,591.4 L3825.6,587.3 L3825.6,587.3 L3825.4,575.3 L3837.5,574.7 L3840.9,546.7 L3834.7,526.5 L3855.0,518.1 L3883.7,522.3 L3899.6,499.3 L3907.7,473.4 L3916.9,464.7 L3929.3,443.4 L3890.2,450.4 L3869.7,459.7 L3833.8,459.7 L3824.2,437.5 L3796.2,420.7 L3755.0,413.1 L3746.3,389.9 L3738.0,375.4 L3729.2,365.2 L3714.6,341.4 L3693.8,332.7 L3658.4,325.6 L3627.0,326.3 L3597.6,330.5 L3578.1,342.3 L3591.1,347.9 L3591.4,361.0 L3578.2,368.6 L3556.9,393.6 L3557.1,404.1 L3523.8,419.0 L3495.4,410.1 L3467.1,412.0 L3454.8,404.1 L3440.6,401.6 L3405.9,418.2 L3374.8,422.1 L3353.0,428.0 L3323.3,424.2 L3301.3,424.4 L3287.0,412.3 L3263.8,400.9 L3240.1,397.8 L3210.2,400.9 L3187.8,405.3 L3154.2,395.4 L3149.7,377.6 L3121.9,371.6 L3100.4,368.8 L3073.9,359.0 L3049.4,383.5 L3059.0,397.4 L3036.1,413.9 L3001.9,408.0 L2978.3,407.1 L2962.4,396.1 L2937.8,395.7 L2917.2,388.5 L2881.2,399.6 L2836.1,420.0 L2811.2,424.1 L2801.9,426.0 L2789.4,411.5 L2758.9,414.7 L2748.8,404.7 L2732.3,400.1 L2720.9,386.4 L2707.8,382.1 L2673.9,388.2 L2641.3,374.6 L2628.7,387.0 L2575.8,326.9 L2545.6,308.6 L2554.3,301.2 L2495.0,323.5 L2472.3,324.9 L2474.3,312.0 L2443.9,303.9 L2419.2,309.7 L2411.8,285.2 L2369.3,280.1 L2348.0,289.9 L2288.8,298.6 L2277.3,304.4 L2188.8,312.7 L2177.9,320.7 L2195.0,337.0 L2172.3,343.1 L2176.7,349.5 L2154.0,361.1 L2192.3,377.3 L2186.4,388.5 L2153.2,387.5 L2146.3,394.5 L2116.1,382.3 L2078.6,382.8 L2053.5,392.7 L2025.5,383.2 L1973.3,366.8 L1936.4,367.4 L1887.6,393.1 L1884.6,410.4 L1860.3,396.7 L1841.4,422.7 L1848.3,427.5 L1834.7,445.4 L1854.8,461.5 L1872.3,460.8 L1887.4,476.6 L1885.0,488.8 L1897.0,492.6 Z M2953.7,-326.4 L3004.9,-331.7 L3050.8,-319.8 L3105.3,-296.9 L3099.4,-275.7 L3047.8,-272.7 L2982.0,-279.5 L2942.7,-288.6 L2924.6,-305.5 L2892.3,-310.2 L2953.7,-326.4 Z M3168.0,-285.1 L3227.9,-271.7 L3220.9,-262.1 L3087.6,-253.0 L3130.8,-284.0 L3150.2,-286.7 L3168.0,-285.1 Z M4019.3,-210.8 L4081.8,-209.7 L4167.3,-197.2 L4148.7,-179.6 L4061.5,-180.3 L4022.3,-174.7 L3975.4,-190.1 L3988.1,-206.3 L4019.3,-210.8 Z M4241.4,-192.0 L4300.8,-185.9 L4273.4,-176.5 L4235.6,-178.6 L4191.7,-188.0 L4197.3,-195.6 L4241.4,-192.0 Z M4043.7,-145.3 L4066.2,-154.7 L4095.7,-156.8 L4129.3,-147.8 L4132.2,-141.6 L4096.3,-141.4 L4047.9,-144.1 L4043.7,-145.3 Z M1796.4,-316.1 L1842.6,-320.4 L1878.5,-320.7 L1883.3,-314.3 L1896.9,-320.0 L1919.2,-323.9 L1954.3,-318.7 L1945.1,-315.1 L1913.4,-312.0 L1892.1,-310.2 L1888.8,-306.3 L1861.2,-302.4 L1835.5,-308.0 L1849.0,-315.4 L1796.4,-316.1 Z M1273.3,305.1 L1229.8,305.4 L1200.7,302.7 L1206.1,292.3 L1238.7,284.7 L1263.5,288.8 L1273.9,292.6 L1271.4,299.0 L1273.3,305.1 Z M2001.2,-154.3 L2057.9,-175.1 L2051.5,-185.8 L2104.4,-198.3 L2182.5,-213.5 L2261.2,-217.9 L2301.7,-226.7 L2347.7,-229.7 L2364.2,-220.4 L2348.3,-213.0 L2264.5,-201.3 L2192.2,-190.0 L2118.8,-167.5 L2083.5,-144.4 L2046.4,-121.7 L2051.3,-102.0 L2096.5,-82.6 L2082.5,-80.6 L2005.2,-83.6 L1999.0,-94.1 L1956.1,-100.5 L1952.7,-113.3 L1976.9,-118.3 L1976.1,-131.2 L2023.0,-151.4 L2001.2,-154.3 Z M4115.9,319.8 L4124.1,342.6 L4123.5,365.9 L4133.2,389.8 L4157.0,431.6 L4122.0,423.8 L4107.5,458.0 L4130.5,482.3 L4129.9,498.8 L4111.9,484.5 L4096.4,502.8 L4092.1,483.0 L4094.7,459.9 L4092.0,434.4 L4097.5,416.5 L4098.5,384.9 L4084.7,361.7 L4086.8,329.3 L4108.6,318.5 L4099.2,307.5 L4109.7,304.2 L4115.9,319.8 Z M-3401.8,0.5 L-3403.8,15.2 L-3387.9,21.1 L-3393.4,3.9 L-3329.1,7.4 L-3282.8,29.5 L-3306.3,39.8 L-3345.1,42.3 L-3345.6,65.4 L-3355.1,70.3 L-3377.3,69.6 L-3395.3,61.4 L-3426.7,54.5 L-3432.0,44.2 L-3456.0,40.3 L-3482.9,43.4 L-3495.8,35.1 L-3490.7,26.3 L-3519.0,32.0 L-3508.3,43.1 L-3521.7,53.1 L-3521.7,-41.1 L-3463.8,-23.0 L-3401.8,0.5 Z M-3490.8,-86.7 L-3521.7,-85.3 L-3521.7,-101.5 L-3518.7,-102.4 L-3498.7,-102.4 L-3464.5,-95.6 L-3466.5,-92.4 L-3490.8,-86.7 Z M1526.5,502.7 L1532.7,496.9 L1549.5,501.9 L1557.1,502.9 L1560.2,507.5 L1563.8,508.2 L1564.0,510.3 L1575.5,516.0 L1599.7,514.6 L1595.0,523.0 L1569.2,527.1 L1537.0,540.8 L1523.9,536.0 L1529.1,524.9 L1503.3,518.0 L1507.4,513.4 L1530.1,505.6 L1526.5,502.7 Z" fill="#d7e1e4"/><path class="country" data-name="Norway" d="M1093.8,-294.4 L1102.8,-302.5 L1137.5,-303.3 L1167.3,-295.1 L1245.2,-277.4 L1185.7,-268.1 L1172.5,-250.7 L1151.8,-246.3 L1140.5,-226.7 L1112.0,-225.7 L1061.2,-240.2 L1082.6,-248.6 L1047.2,-255.4 L1001.1,-275.4 L982.7,-293.9 L1047.2,-302.4 L1060.1,-294.1 L1093.8,-294.4 Z M1471.3,-55.2 L1431.0,-45.7 L1411.9,-43.5 L1421.9,-60.1 L1391.6,-69.5 L1354.9,-61.5 L1343.3,-44.1 L1320.7,-33.7 L1295.3,-39.4 L1264.4,-38.2 L1238.1,-50.7 L1224.0,-44.5 L1209.3,-43.5 L1205.8,-27.9 L1161.2,-31.7 L1155.0,-18.6 L1132.3,-18.6 L1116.7,-1.8 L1093.0,24.4 L1056.3,57.7 L1064.9,65.8 L1056.7,75.1 L1033.2,74.7 L1017.8,96.9 L1019.3,128.3 L1034.4,140.3 L1026.6,168.1 L1006.9,184.3 L996.5,198.0 L980.6,183.5 L933.9,210.8 L902.4,216.4 L869.7,204.3 L861.2,178.9 L853.7,124.3 L875.5,109.1 L938.0,89.2 L984.7,64.8 L1028.0,31.8 L1084.8,-13.8 L1124.4,-31.6 L1189.4,-61.3 L1241.3,-71.6 L1280.2,-70.4 L1316.2,-90.0 L1359.4,-88.9 L1401.8,-93.6 L1475.8,-76.3 L1445.3,-70.0 L1471.3,-55.2 Z M1383.9,-303.5 L1348.8,-290.7 L1280.2,-287.9 L1210.5,-291.9 L1206.3,-298.4 L1172.3,-298.8 L1146.4,-309.7 L1219.5,-316.3 L1253.8,-310.6 L1277.7,-317.7 L1337.5,-311.8 L1383.9,-303.5 Z M1320.4,-251.4 L1267.6,-241.7 L1225.9,-247.2 L1242.2,-253.3 L1227.9,-260.8 L1276.9,-265.6 L1286.3,-256.7 L1320.4,-251.4 Z" fill="#d7e1e4"/><path class="country" data-name="Greenland" d="M-370.4,-364.3 L-291.0,-378.4 L-208.0,-377.3 L-177.8,-386.1 L-94.3,-388.3 L94.7,-385.4 L242.6,-366.6 L198.9,-357.5 L108.5,-356.5 L-18.9,-354.2 L-6.9,-349.9 L76.8,-352.6 L148.0,-344.4 L193.9,-351.6 L213.6,-343.2 L187.6,-329.4 L247.9,-338.2 L362.7,-347.4 L433.6,-342.8 L446.9,-332.7 L350.5,-315.8 L337.1,-310.4 L261.5,-306.3 L316.3,-305.2 L288.6,-287.9 L269.6,-272.6 L270.3,-246.3 L298.7,-230.8 L261.8,-229.9 L222.9,-222.4 L266.5,-209.8 L272.1,-189.7 L246.8,-187.6 L277.4,-167.2 L224.9,-165.5 L252.3,-155.9 L244.6,-147.5 L211.2,-143.9 L178.3,-143.8 L207.9,-127.8 L208.2,-117.3 L161.4,-127.1 L149.2,-120.7 L181.2,-114.8 L212.2,-100.4 L221.1,-81.3 L179.0,-76.7 L160.7,-85.9 L131.5,-99.5 L139.6,-83.4 L112.1,-71.0 L174.4,-70.0 L207.0,-68.7 L143.7,-48.1 L79.4,-29.4 L10.2,-21.3 L-15.9,-21.2 L-40.4,-12.0 L-73.3,12.9 L-124.2,29.5 L-140.5,30.5 L-172.0,36.3 L-206.0,41.8 L-226.3,56.4 L-226.6,73.0 L-238.6,88.5 L-277.1,107.5 L-267.6,126.0 L-278.2,145.5 L-290.3,168.6 L-323.7,170.0 L-358.6,150.7 L-405.9,150.6 L-428.8,137.6 L-444.6,114.5 L-485.6,85.1 L-497.6,69.7 L-500.8,48.5 L-533.6,26.6 L-525.0,9.2 L-540.8,0.9 L-517.4,-26.8 L-481.9,-35.6 L-472.5,-45.5 L-467.6,-63.9 L-494.6,-55.6 L-507.5,-52.0 L-528.7,-48.7 L-557.7,-56.4 L-559.3,-72.5 L-550.1,-85.0 L-528.1,-85.4 L-479.8,-79.1 L-520.5,-94.1 L-541.7,-102.2 L-565.2,-98.9 L-585.0,-104.7 L-558.6,-126.8 L-572.9,-135.6 L-591.7,-151.9 L-620.2,-177.0 L-650.3,-186.2 L-650.0,-196.1 L-713.5,-209.9 L-763.7,-211.7 L-826.9,-210.7 L-884.6,-209.0 L-912.1,-216.5 L-953.2,-231.4 L-891.1,-238.8 L-843.5,-240.1 L-944.7,-246.2 L-998.0,-255.9 L-994.7,-265.1 L-905.2,-276.4 L-818.5,-287.8 L-809.4,-296.4 L-873.2,-304.9 L-852.6,-314.3 L-770.7,-330.8 L-736.3,-333.4 L-746.2,-344.0 L-690.2,-350.2 L-617.4,-353.9 L-544.7,-354.2 L-518.9,-346.8 L-456.2,-359.8 L-399.7,-351.0 L-366.5,-349.1 L-317.4,-341.4 L-373.7,-354.2 L-370.4,-364.3 Z" fill="#d7e1e4"/><path class="country" data-name="France" d="M-486.2,1491.7 L-500.2,1513.4 L-507.4,1530.8 L-516.5,1539.8 L-527.8,1541.5 L-531.0,1534.8 L-536.3,1533.8 L-543.6,1540.2 L-554.0,1535.4 L-547.9,1525.4 L-545.9,1514.6 L-541.7,1504.4 L-551.0,1490.4 L-552.9,1474.2 L-540.6,1453.9 L-532.5,1456.5 L-515.1,1462.1 L-490.1,1482.1 L-486.2,1491.7 Z M882.0,420.1 L893.1,426.3 L927.2,430.7 L915.3,446.9 L912.3,463.7 L905.8,467.8 L895.0,465.6 L895.7,471.6 L878.4,484.9 L878.1,495.6 L889.4,491.9 L897.5,502.3 L896.5,508.9 L903.5,517.8 L895.3,525.0 L901.4,543.3 L914.2,546.3 L911.5,556.6 L890.1,570.0 L843.4,563.5 L809.0,571.2 L806.3,585.5 L778.9,588.5 L752.2,577.8 L743.6,582.9 L700.1,572.2 L690.7,563.0 L702.9,548.8 L707.4,501.7 L683.0,476.9 L665.6,464.9 L629.4,455.8 L627.0,438.6 L657.7,433.4 L697.4,439.5 L689.9,412.7 L712.2,422.9 L767.3,404.4 L774.4,385.0 L795.1,380.3 L798.5,388.6 L809.5,389.0 L820.5,398.5 L837.0,409.6 L849.2,407.8 L869.9,418.6 L875.1,420.6 L882.0,420.1 Z M942.5,581.8 L957.7,572.8 L961.8,593.0 L954.0,611.3 L943.2,606.5 L937.7,590.6 L942.5,581.8 Z" fill="#d7e1e4"/><path class="country" data-name="Tunisia" d="M959.9,873.2 L949.8,830.7 L935.3,821.2 L935.1,815.5 L915.7,801.4 L913.6,783.6 L928.2,770.4 L933.8,750.9 L930.0,728.3 L934.8,716.2 L960.6,706.6 L977.1,709.5 L976.4,721.4 L996.5,712.7 L998.2,717.3 L986.4,728.9 L986.2,739.8 L994.4,745.7 L991.3,766.2 L975.7,778.0 L980.2,790.9 L992.4,791.3 L998.4,802.6 L1007.4,806.3 L1006.0,824.4 L994.5,831.2 L987.2,838.8 L971.0,847.9 L973.5,857.7 L971.5,867.7 L959.9,873.2 Z" fill="#d7e1e4"/><path class="country" data-name="Algeria" d="M530.2,942.1 L530.7,937.5 L530.7,935.9 L530.5,907.9 L568.7,890.4 L592.3,886.8 L611.7,880.5 L620.7,868.6 L648.4,859.3 L649.4,841.8 L663.1,839.7 L673.8,830.9 L704.7,827.0 L709.1,817.8 L702.8,812.7 L694.7,787.8 L693.2,773.4 L684.3,758.2 L707.1,745.3 L732.6,741.2 L747.6,731.4 L770.3,724.2 L810.4,720.0 L849.6,718.1 L861.5,721.6 L883.8,712.3 L909.0,712.1 L918.7,717.6 L934.8,716.2 L930.0,728.3 L933.8,750.9 L928.2,770.4 L913.6,783.6 L915.7,801.4 L935.1,815.5 L935.3,821.2 L949.8,830.7 L959.9,873.2 L967.6,894.1 L968.9,905.1 L964.7,924.4 L966.4,935.2 L963.4,948.1 L965.5,963.0 L956.1,972.9 L970.1,990.1 L971.0,1000.2 L979.4,1013.4 L990.4,1009.1 L1009.1,1020.1 L1019.5,1034.9 L938.4,1080.0 L869.9,1126.4 L836.6,1137.0 L810.3,1139.3 L810.1,1124.2 L799.1,1120.4 L784.4,1113.6 L778.8,1102.6 L699.0,1050.9 L619.2,999.3 L530.2,942.1 Z" fill="#d7e1e4"/><path class="country" data-name="Sweden" d="M996.5,198.0 L1006.9,184.3 L1026.6,168.1 L1034.4,140.3 L1019.3,128.3 L1017.8,96.9 L1033.2,74.7 L1056.7,75.1 L1064.9,65.8 L1056.3,57.7 L1093.0,24.4 L1116.7,-1.8 L1132.3,-18.6 L1155.0,-18.6 L1161.2,-31.7 L1205.8,-27.9 L1209.3,-43.5 L1224.0,-44.5 L1255.5,-32.9 L1292.4,-16.8 L1293.0,19.6 L1301.0,28.8 L1260.3,35.5 L1237.4,52.0 L1241.1,66.5 L1203.5,85.5 L1157.8,105.9 L1140.6,139.2 L1157.4,155.9 L1180.0,169.0 L1158.3,195.7 L1133.7,201.2 L1124.7,240.9 L1111.2,263.1 L1082.6,260.8 L1069.2,279.5 L1041.8,280.6 L1034.3,258.3 L1014.5,231.4 L996.5,198.0 Z" fill="#d7e1e4"/><path class="country" data-name="Belarus" d="M1402.1,261.5 L1427.0,267.5 L1430.4,273.3 L1442.8,270.5 L1465.9,276.1 L1468.2,287.2 L1463.1,293.6 L1478.0,309.1 L1487.6,313.4 L1486.2,317.7 L1502.1,321.9 L1508.9,328.2 L1499.7,333.3 L1480.6,332.5 L1476.1,334.7 L1481.6,342.6 L1487.5,357.7 L1487.5,357.7 L1467.2,359.1 L1459.9,364.3 L1458.3,376.2 L1448.9,373.9 L1427.6,375.1 L1421.4,369.5 L1412.5,373.7 L1403.6,370.2 L1385.0,369.8 L1358.6,364.1 L1334.7,362.2 L1316.4,362.8 L1303.4,369.2 L1292.1,370.1 L1291.7,359.6 L1284.4,348.6 L1298.6,343.8 L1298.7,334.4 L1292.1,325.4 L1291.1,314.9 L1314.0,315.1 L1339.6,306.1 L1345.1,292.8 L1364.5,285.2 L1362.3,274.6 L1376.7,270.6 L1402.1,261.5 Z" fill="#d7e1e4"/><path class="country" data-name="Ukraine" d="M1487.5,357.7 L1496.3,358.7 L1502.3,353.3 L1509.5,354.5 L1534.0,352.2 L1549.1,365.6 L1543.2,370.4 L1545.1,377.7 L1564.0,378.9 L1572.4,389.1 L1571.9,393.8 L1601.9,402.1 L1620.1,398.4 L1634.7,409.4 L1648.5,409.2 L1683.4,416.9 L1683.6,423.8 L1674.0,436.2 L1679.3,449.2 L1675.5,457.1 L1652.7,458.9 L1640.5,465.5 L1639.7,476.0 L1620.8,477.9 L1605.1,485.5 L1583.0,486.8 L1562.6,495.6 L1563.8,508.2 L1560.2,507.5 L1557.1,502.9 L1549.5,501.9 L1532.7,496.9 L1526.5,502.7 L1523.2,500.1 L1486.5,494.2 L1484.8,485.3 L1462.9,488.3 L1454.1,501.3 L1435.8,518.8 L1425.1,514.7 L1414.0,518.5 L1403.4,514.1 L1409.4,511.6 L1413.5,503.5 L1420.0,495.9 L1418.3,491.7 L1423.3,489.8 L1425.6,493.1 L1439.5,493.8 L1445.8,492.0 L1441.4,489.6 L1443.1,486.1 L1434.8,480.1 L1431.4,470.2 L1422.8,466.3 L1424.5,458.3 L1413.8,451.9 L1404.1,451.1 L1386.6,443.7 L1370.9,446.0 L1365.3,449.5 L1355.3,449.5 L1349.3,455.0 L1331.9,457.3 L1323.8,460.9 L1312.8,455.2 L1297.7,455.1 L1283.0,452.5 L1272.8,457.5 L1271.2,451.2 L1258.0,444.8 L1262.6,435.2 L1269.2,429.1 L1274.4,430.4 L1268.3,419.8 L1289.7,400.1 L1301.5,397.4 L1304.0,390.8 L1292.1,370.1 L1303.4,369.2 L1316.4,362.8 L1334.7,362.2 L1358.6,364.1 L1385.0,369.8 L1403.6,370.2 L1412.5,373.7 L1421.4,369.5 L1427.6,375.1 L1448.9,373.9 L1458.3,376.2 L1459.9,364.3 L1467.2,359.1 L1487.5,357.7 Z" fill="#d7e1e4"/><path class="country" data-name="Poland" d="M1291.1,314.9 L1292.1,325.4 L1298.7,334.4 L1298.6,343.8 L1284.4,348.6 L1291.7,359.6 L1292.1,370.1 L1304.0,390.8 L1301.5,397.4 L1289.7,400.1 L1268.3,419.8 L1274.4,430.4 L1269.2,429.1 L1246.7,420.0 L1229.7,423.3 L1218.5,420.9 L1204.6,426.0 L1192.6,417.6 L1182.9,420.8 L1181.6,419.4 L1170.7,407.7 L1153.1,406.3 L1150.9,398.9 L1134.6,396.2 L1131.1,402.3 L1118.3,397.4 L1119.7,390.9 L1102.0,388.9 L1090.8,381.3 L1081.1,366.2 L1083.0,358.0 L1077.1,345.4 L1068.5,336.9 L1075.1,330.6 L1069.6,318.6 L1085.8,311.6 L1122.7,300.7 L1152.5,292.7 L1176.1,296.7 L1177.9,302.4 L1200.7,302.7 L1229.8,305.4 L1273.3,305.1 L1285.4,307.6 L1291.1,314.9 Z" fill="#d7e1e4"/><path class="country visited" data-name="Austria" d="M1137.3,451.8 L1135.5,461.5 L1122.1,461.5 L1126.7,466.7 L1118.9,481.9 L1114.4,485.9 L1093.7,486.5 L1081.7,491.8 L1062.2,490.0 L1028.4,483.9 L1023.1,475.7 L999.7,479.8 L997.0,484.3 L982.6,480.9 L970.6,480.3 L959.9,476.0 L963.5,470.2 L962.6,466.0 L969.7,464.7 L981.7,471.2 L985.1,465.0 L1005.9,466.0 L1022.8,461.8 L1034.2,462.5 L1041.5,467.3 L1043.7,463.3 L1040.4,447.9 L1048.9,444.9 L1057.2,434.0 L1074.8,441.6 L1088.1,431.9 L1096.4,430.2 L1114.8,437.4 L1125.9,436.2 L1136.8,440.6 L1134.9,443.6 L1137.3,451.8 Z" fill="#d88b4a"/><path class="country" data-name="Hungary" d="M1258.0,444.8 L1271.2,451.2 L1272.8,457.5 L1258.4,462.5 L1247.2,478.5 L1232.9,494.6 L1213.9,499.0 L1199.1,498.0 L1181.0,504.2 L1181.0,504.2 L1172.2,507.7 L1152.6,503.2 L1135.0,493.0 L1127.4,490.1 L1122.9,482.1 L1118.9,481.9 L1126.7,466.7 L1122.1,461.5 L1135.5,461.5 L1137.3,451.8 L1149.3,457.9 L1158.0,460.5 L1177.9,457.6 L1179.8,452.8 L1189.2,452.1 L1200.7,448.4 L1203.2,449.9 L1214.3,447.0 L1219.9,441.4 L1227.6,440.0 L1253.0,447.2 L1258.0,444.8 Z" fill="#d7e1e4"/><path class="country" data-name="Moldova" d="M1365.3,449.5 L1370.9,446.0 L1386.6,443.7 L1404.1,451.1 L1413.8,451.9 L1424.5,458.3 L1422.8,466.3 L1431.4,470.2 L1434.8,480.1 L1443.1,486.1 L1441.4,489.6 L1445.8,492.0 L1439.5,493.8 L1425.6,493.1 L1423.3,489.8 L1418.3,491.7 L1420.0,495.9 L1413.5,503.5 L1409.4,511.6 L1403.4,514.1 L1399.2,503.4 L1401.7,493.3 L1400.9,482.9 L1387.3,468.8 L1379.8,458.8 L1372.5,451.8 L1365.3,449.5 Z" fill="#d7e1e4"/><path class="country" data-name="Romania" d="M1403.4,514.1 L1414.0,518.5 L1425.1,514.7 L1435.8,518.8 L1436.4,524.9 L1424.9,529.9 L1417.7,527.7 L1411.1,556.3 L1397.2,553.8 L1380.0,545.2 L1352.1,550.7 L1340.4,556.7 L1305.7,555.5 L1287.5,551.8 L1278.3,553.5 L1271.5,543.8 L1267.2,539.7 L1272.7,535.7 L1266.9,532.7 L1259.4,538.0 L1245.6,531.2 L1243.8,521.4 L1229.4,515.8 L1226.7,508.3 L1213.9,499.0 L1232.9,494.6 L1247.2,478.5 L1258.4,462.5 L1272.8,457.5 L1283.0,452.5 L1297.7,455.1 L1312.8,455.2 L1323.8,460.9 L1331.9,457.3 L1349.3,455.0 L1355.3,449.5 L1365.3,449.5 L1372.5,451.8 L1379.8,458.8 L1387.3,468.8 L1400.9,482.9 L1401.7,493.3 L1399.2,503.4 L1403.4,514.1 Z" fill="#d7e1e4"/><path class="country" data-name="Lithuania" d="M1362.3,274.6 L1364.5,285.2 L1345.1,292.8 L1339.6,306.1 L1314.0,315.1 L1291.1,314.9 L1285.4,307.6 L1273.3,305.1 L1271.4,299.0 L1273.9,292.6 L1263.5,288.8 L1238.7,284.7 L1233.7,264.8 L1260.8,257.5 L1300.4,259.0 L1323.7,256.7 L1327.0,261.6 L1339.6,263.1 L1362.3,274.6 Z" fill="#d7e1e4"/><path class="country" data-name="Latvia" d="M1381.1,230.6 L1392.5,236.1 L1394.5,247.6 L1402.1,261.5 L1376.7,270.6 L1362.3,274.6 L1339.6,263.1 L1327.0,261.6 L1323.7,256.7 L1300.4,259.0 L1260.8,257.5 L1233.7,264.8 L1234.5,247.0 L1246.1,232.1 L1268.4,224.1 L1287.2,241.7 L1306.2,241.3 L1310.7,223.1 L1330.8,218.9 L1341.2,221.8 L1361.6,230.6 L1381.1,230.6 Z" fill="#d7e1e4"/><path class="country" data-name="Estonia" d="M1397.5,183.3 L1397.5,183.3 L1401.0,187.5 L1384.2,201.1 L1391.2,223.1 L1381.1,230.6 L1361.6,230.6 L1341.2,221.8 L1330.8,218.9 L1310.7,223.1 L1313.4,209.1 L1304.8,212.1 L1289.7,203.7 L1287.7,190.1 L1317.6,183.5 L1347.4,180.1 L1373.1,184.0 L1397.5,183.3 L1397.5,183.3 Z" fill="#d7e1e4"/><path class="country visited" data-name="Germany" d="M1069.6,318.6 L1075.1,330.6 L1068.5,336.9 L1077.1,345.4 L1083.0,358.0 L1081.1,366.2 L1090.8,381.3 L1080.3,383.7 L1074.0,381.0 L1068.1,385.5 L1051.1,390.1 L1042.3,396.0 L1025.2,401.1 L1029.3,408.2 L1031.8,418.1 L1043.9,423.8 L1057.2,434.0 L1048.9,444.9 L1040.4,447.9 L1043.7,463.3 L1041.5,467.3 L1034.2,462.5 L1022.8,461.8 L1005.9,466.0 L985.1,465.0 L981.7,471.2 L969.7,464.7 L962.6,466.0 L937.2,458.7 L932.4,463.9 L912.3,463.7 L915.3,446.9 L927.2,430.7 L893.1,426.3 L882.0,420.1 L883.3,409.7 L878.6,404.4 L881.3,388.4 L877.3,363.6 L891.5,363.6 L897.5,354.7 L903.4,333.1 L899.0,325.1 L903.6,320.1 L923.4,318.8 L927.7,324.0 L943.8,312.3 L938.4,303.5 L937.3,290.1 L955.2,293.2 L970.3,289.6 L970.7,298.7 L994.6,304.2 L994.4,312.6 L1018.4,308.2 L1031.7,301.7 L1058.4,311.0 L1069.6,318.6 Z" fill="#f1d46b"/><path class="country" data-name="Bulgaria" d="M1271.5,543.8 L1278.3,553.5 L1287.5,551.8 L1305.7,555.5 L1340.4,556.7 L1352.1,550.7 L1380.0,545.2 L1397.2,553.8 L1411.1,556.3 L1398.8,566.1 L1390.2,583.0 L1397.8,596.5 L1377.5,593.3 L1353.4,600.7 L1353.1,612.5 L1331.6,614.8 L1315.0,606.5 L1296.0,613.0 L1278.5,612.3 L1276.8,596.7 L1265.0,589.1 L1268.9,585.7 L1266.3,582.9 L1270.3,575.4 L1279.3,568.0 L1267.8,557.8 L1265.7,549.2 L1271.5,543.8 Z" fill="#d7e1e4"/><path class="country" data-name="Greece" d="M1357.5,755.1 L1354.5,762.1 L1320.5,764.1 L1320.7,760.2 L1291.8,755.6 L1296.2,745.5 L1309.1,753.5 L1327.5,752.2 L1345.1,753.8 L1344.6,758.0 L1357.5,755.1 Z M1278.5,612.3 L1296.0,613.0 L1315.0,606.5 L1331.6,614.8 L1353.1,612.5 L1353.4,600.7 L1364.9,607.0 L1357.6,621.8 L1352.0,624.5 L1337.5,623.8 L1325.2,621.6 L1296.6,627.7 L1313.0,641.0 L1300.9,644.9 L1287.8,644.9 L1275.3,632.7 L1270.8,637.9 L1276.1,652.0 L1287.9,663.1 L1279.0,668.3 L1292.2,679.2 L1303.9,686.1 L1304.3,699.4 L1282.4,693.2 L1289.3,705.2 L1274.3,707.7 L1283.3,728.6 L1267.6,728.9 L1248.2,718.6 L1239.3,699.7 L1235.2,683.9 L1226.0,673.0 L1213.8,659.6 L1212.2,652.8 L1223.2,641.4 L1224.7,633.7 L1232.3,630.2 L1232.8,624.0 L1248.3,621.9 L1257.3,616.8 L1270.1,617.2 L1274.0,613.1 L1278.5,612.3 Z" fill="#d7e1e4"/><path class="country" data-name="Turkey" d="M1794.6,710.9 L1783.3,714.9 L1775.0,708.9 L1747.5,705.8 L1737.3,709.5 L1710.4,713.2 L1697.7,712.8 L1670.4,721.6 L1651.0,721.7 L1638.4,717.2 L1612.4,723.8 L1604.6,719.2 L1603.3,732.4 L1597.0,737.6 L1590.7,742.8 L1582.0,732.1 L1590.9,723.2 L1576.5,725.2 L1556.7,719.7 L1540.5,733.4 L1504.6,736.0 L1485.4,723.3 L1459.9,722.5 L1454.5,732.3 L1438.1,735.2 L1415.2,722.6 L1389.4,723.0 L1375.4,699.5 L1358.1,686.3 L1369.6,667.9 L1354.6,656.6 L1380.9,634.0 L1417.3,633.1 L1427.2,615.1 L1472.3,618.2 L1500.8,602.9 L1528.3,596.2 L1567.4,595.7 L1608.7,612.4 L1642.7,621.5 L1670.2,617.9 L1690.6,620.0 L1718.5,607.6 L1743.7,606.5 L1766.5,618.1 L1770.5,626.4 L1768.2,638.0 L1785.8,643.8 L1795.1,650.7 L1778.9,657.5 L1786.3,684.6 L1781.7,691.9 L1794.6,710.9 L1794.6,710.9 Z M1353.4,600.7 L1377.5,593.3 L1397.8,596.5 L1400.6,605.6 L1421.3,613.2 L1417.0,619.0 L1388.9,620.3 L1378.8,627.6 L1359.1,640.4 L1351.6,629.3 L1352.0,624.5 L1357.6,621.8 L1364.9,607.0 L1353.4,600.7 Z" fill="#d7e1e4"/><path class="country" data-name="Albania" d="M1232.8,624.0 L1232.3,630.2 L1224.7,633.7 L1223.2,641.4 L1212.2,652.8 L1208.2,651.2 L1207.7,646.0 L1194.6,638.0 L1192.6,626.8 L1194.6,610.6 L1197.8,603.3 L1193.8,599.5 L1193.8,599.5 L1192.2,592.0 L1202.5,580.4 L1204.0,584.8 L1210.4,582.7 L1215.4,589.1 L1221.1,591.5 L1222.7,600.1 L1222.7,600.1 L1219.7,608.1 L1223.0,618.3 L1232.8,624.0 Z" fill="#d7e1e4"/><path class="country" data-name="Croatia" d="M1127.4,490.1 L1135.0,493.0 L1152.6,503.2 L1172.2,507.7 L1181.0,504.2 L1186.8,513.4 L1194.3,520.1 L1185.2,529.0 L1174.5,523.8 L1158.1,524.1 L1137.8,520.2 L1126.7,520.7 L1121.6,525.6 L1113.1,520.2 L1108.2,530.0 L1119.8,541.0 L1124.9,548.4 L1135.8,557.2 L1144.8,562.4 L1153.7,572.3 L1174.6,581.3 L1172.0,585.3 L1172.0,585.3 L1149.8,576.5 L1136.1,568.0 L1114.5,561.0 L1094.6,543.6 L1099.3,541.8 L1088.5,531.9 L1088.1,523.9 L1072.9,520.2 L1065.7,530.4 L1058.7,522.5 L1059.2,514.2 L1060.0,513.9 L1076.5,514.7 L1080.9,510.7 L1088.9,514.5 L1098.2,515.0 L1098.1,508.4 L1106.3,506.0 L1108.6,496.4 L1127.4,490.1 Z" fill="#d7e1e4"/><path class="country visited" data-name="Switzerland" d="M962.6,466.0 L963.5,470.2 L959.9,476.0 L970.6,480.3 L982.6,480.9 L980.8,490.6 L970.3,494.6 L952.8,491.6 L947.7,501.2 L936.5,501.9 L932.4,498.2 L919.1,506.2 L907.7,507.3 L897.5,502.3 L889.4,491.9 L878.1,495.6 L878.4,484.9 L895.7,471.6 L895.0,465.6 L905.8,467.8 L912.3,463.7 L932.4,463.9 L937.2,458.7 L962.6,466.0 Z" fill="#6f91e8"/><path class="country" data-name="Luxembourg" d="M878.6,404.4 L883.3,409.7 L882.0,420.1 L875.1,420.6 L869.9,418.6 L872.4,405.3 L878.6,404.4 Z" fill="#d7e1e4"/><path class="country visited" data-name="Belgium" d="M881.3,388.4 L878.6,404.4 L872.4,405.3 L869.9,418.6 L849.2,407.8 L837.0,409.6 L820.5,398.5 L809.5,389.0 L798.5,388.6 L795.1,380.3 L814.1,375.6 L814.1,375.6 L814.1,375.6 L831.4,377.5 L853.3,372.5 L868.3,382.9 L881.3,388.4 Z" fill="#4e79a7"/><path class="country" data-name="Netherlands" d="M899.0,325.1 L903.4,333.1 L897.5,354.7 L891.5,363.6 L877.3,363.6 L881.3,388.4 L868.3,382.9 L853.3,372.5 L831.4,377.5 L814.1,375.6 L814.1,375.6 L826.2,369.1 L847.0,334.3 L879.3,324.4 L899.0,325.1 Z" fill="#d7e1e4"/><path class="country" data-name="Portugal" d="M522.0,599.5 L530.5,593.5 L540.2,590.0 L546.1,601.6 L560.1,601.6 L564.1,598.6 L577.9,599.4 L584.5,611.3 L573.6,617.7 L573.3,636.1 L569.5,639.6 L568.5,650.8 L558.3,652.7 L567.8,666.9 L561.2,682.4 L569.4,689.5 L566.1,695.9 L557.4,704.8 L559.4,712.6 L549.8,718.7 L537.4,715.4 L525.2,718.0 L528.8,699.5 L526.6,685.0 L516.0,682.8 L510.3,673.8 L512.2,658.3 L521.6,649.7 L523.3,640.2 L528.3,626.0 L527.7,615.9 L523.0,607.5 L522.0,599.5 Z" fill="#d7e1e4"/><path class="country" data-name="Spain" d="M559.4,712.6 L557.4,704.8 L566.1,695.9 L569.4,689.5 L561.2,682.4 L567.8,666.9 L558.3,652.7 L568.5,650.8 L569.5,639.6 L573.3,636.1 L573.6,617.7 L584.5,611.3 L577.9,599.4 L564.1,598.6 L560.1,601.6 L546.1,601.6 L540.2,590.0 L530.5,593.5 L522.0,599.5 L523.2,582.6 L513.5,572.4 L547.0,555.3 L575.9,559.6 L607.6,559.4 L632.8,563.5 L652.5,562.2 L690.7,563.0 L700.1,572.2 L743.6,582.9 L752.2,577.8 L778.9,588.5 L806.3,585.5 L807.5,599.2 L785.1,615.0 L754.8,620.0 L752.7,627.9 L738.2,641.0 L729.1,660.3 L738.3,673.8 L724.6,684.3 L719.5,699.7 L701.6,704.4 L684.9,722.6 L654.9,723.0 L632.3,722.5 L617.5,730.9 L608.5,739.8 L596.9,737.9 L588.1,729.9 L581.4,716.3 L559.4,712.6 Z" fill="#d7e1e4"/><path class="country" data-name="Ireland" d="M589.1,316.0 L593.0,332.9 L575.1,354.0 L533.2,368.0 L499.7,364.4 L518.8,339.7 L506.5,315.6 L538.7,297.1 L556.6,286.1 L561.4,298.7 L556.6,311.4 L571.2,311.1 L589.1,316.0 Z" fill="#d7e1e4"/><path class="country visited" data-name="Italy" d="M982.6,480.9 L997.0,484.3 L999.7,479.8 L1023.1,475.7 L1028.4,483.9 L1062.2,490.0 L1059.6,501.6 L1065.3,511.7 L1046.5,508.3 L1027.2,516.7 L1028.6,528.4 L1025.7,535.1 L1033.4,547.2 L1055.6,559.1 L1067.5,578.7 L1093.8,597.7 L1112.3,597.6 L1118.1,602.8 L1111.5,607.5 L1132.7,616.1 L1150.0,623.2 L1170.3,635.5 L1172.8,640.0 L1168.3,648.4 L1155.2,637.4 L1134.7,633.5 L1124.7,648.8 L1141.8,657.6 L1139.0,669.9 L1129.1,671.3 L1116.5,691.6 L1106.6,693.4 L1106.7,686.2 L1111.5,673.5 L1116.7,668.4 L1107.4,654.7 L1100.2,642.8 L1090.4,639.9 L1083.4,629.7 L1068.2,625.4 L1058.0,615.9 L1040.5,614.3 L1022.0,603.6 L1000.4,588.2 L984.3,574.6 L976.9,551.2 L965.1,548.5 L945.9,540.7 L935.0,543.9 L921.3,554.9 L911.5,556.6 L914.2,546.3 L901.4,543.3 L895.3,525.0 L903.5,517.8 L896.5,508.9 L897.5,502.3 L907.7,507.3 L919.1,506.2 L932.4,498.2 L936.5,501.9 L947.7,501.2 L952.8,491.6 L970.3,494.6 L980.8,490.6 L982.6,480.9 Z M1084.8,687.9 L1102.7,685.8 L1094.2,704.4 L1097.8,711.7 L1092.8,723.9 L1074.7,715.0 L1062.7,712.4 L1029.7,700.4 L1033.0,688.3 L1060.7,690.4 L1084.8,687.9 Z M941.7,622.7 L953.5,615.3 L967.7,632.1 L964.4,663.4 L953.6,661.9 L944.0,669.8 L935.0,663.5 L934.1,635.0 L928.7,621.5 L941.7,622.7 Z" fill="#93bf75"/><path class="country" data-name="Denmark" d="M970.3,289.6 L955.2,293.2 L937.3,290.1 L927.7,276.9 L927.0,252.7 L930.9,246.4 L937.7,239.3 L958.6,237.8 L966.9,231.3 L985.9,224.6 L985.1,236.8 L978.1,244.5 L980.9,251.1 L993.7,254.7 L988.0,263.6 L980.9,261.0 L963.9,278.1 L970.3,289.6 Z M1028.3,262.9 L1035.8,274.7 L1021.6,293.9 L996.9,280.5 L993.6,270.7 L1028.3,262.9 Z" fill="#d7e1e4"/><path class="country visited" data-name="United Kingdom" d="M589.1,316.0 L571.2,311.1 L556.6,311.4 L561.4,298.7 L556.6,286.1 L576.4,285.1 L601.7,299.7 L589.1,316.0 Z M662.5,326.9 L662.5,326.9 L666.0,313.2 L650.2,298.6 L649.8,298.3 L621.1,294.1 L615.4,287.7 L624.0,277.1 L616.3,270.6 L603.5,281.8 L602.1,259.0 L590.2,247.0 L598.8,222.5 L617.2,203.3 L636.0,205.2 L664.6,203.2 L639.3,228.8 L663.4,225.5 L689.3,225.7 L683.1,244.9 L661.9,266.1 L686.3,267.7 L688.2,270.1 L709.3,298.0 L725.5,301.8 L740.0,328.8 L746.8,338.1 L775.4,342.6 L772.5,357.8 L760.5,364.7 L769.9,376.9 L748.7,389.3 L717.0,389.1 L676.8,395.6 L665.7,391.0 L650.1,402.0 L628.2,399.3 L611.6,408.4 L599.0,403.7 L633.7,378.8 L654.9,373.7 L654.7,373.7 L617.8,369.7 L611.1,360.3 L635.8,353.0 L622.8,340.3 L627.3,324.8 L662.5,326.9 Z" fill="#b84d45"/><path class="country" data-name="Slovenia" d="M1062.2,490.0 L1081.7,491.8 L1093.7,486.5 L1114.4,485.9 L1118.9,481.9 L1122.9,482.1 L1127.4,490.1 L1108.6,496.4 L1106.3,506.0 L1098.1,508.4 L1098.2,515.0 L1088.9,514.5 L1080.9,510.7 L1076.5,514.7 L1060.0,513.9 L1065.3,511.7 L1059.6,501.6 L1062.2,490.0 Z" fill="#d7e1e4"/><path class="country" data-name="Finland" d="M1411.9,-43.5 L1408.5,-26.9 L1444.7,-11.2 L1422.9,6.7 L1450.4,33.6 L1434.4,53.9 L1455.7,71.5 L1446.1,86.9 L1481.1,103.1 L1472.2,115.1 L1450.2,128.8 L1399.6,159.0 L1399.6,159.0 L1399.6,159.0 L1356.6,160.9 L1315.1,169.6 L1276.6,174.5 L1262.9,161.6 L1240.0,153.9 L1245.2,130.6 L1233.7,109.2 L1245.0,95.5 L1266.5,80.6 L1320.6,55.0 L1336.4,50.0 L1333.9,40.0 L1301.0,28.8 L1293.0,19.6 L1292.4,-16.8 L1255.5,-32.9 L1224.0,-44.5 L1238.1,-50.7 L1264.4,-38.2 L1295.3,-39.4 L1320.7,-33.7 L1343.3,-44.1 L1354.9,-61.5 L1391.6,-69.5 L1421.9,-60.1 L1411.9,-43.5 Z" fill="#d7e1e4"/><path class="country" data-name="Slovakia" d="M1269.2,429.1 L1262.6,435.2 L1258.0,444.8 L1253.0,447.2 L1227.6,440.0 L1219.9,441.4 L1214.3,447.0 L1203.2,449.9 L1200.7,448.4 L1189.2,452.1 L1179.8,452.8 L1177.9,457.6 L1158.0,460.5 L1149.3,457.9 L1137.3,451.8 L1134.9,443.6 L1136.8,440.6 L1140.2,435.4 L1150.6,435.8 L1158.7,433.4 L1159.3,431.2 L1163.9,430.0 L1165.4,424.7 L1170.9,423.6 L1174.5,419.4 L1181.6,419.4 L1182.9,420.8 L1192.6,417.6 L1204.6,426.0 L1218.5,420.9 L1229.7,423.3 L1246.7,420.0 L1269.2,429.1 Z" fill="#d7e1e4"/><path class="country" data-name="Czechia" d="M1090.8,381.3 L1102.0,388.9 L1119.7,390.9 L1118.3,397.4 L1131.1,402.3 L1134.6,396.2 L1150.9,398.9 L1153.1,406.3 L1170.7,407.7 L1181.6,419.4 L1174.5,419.4 L1170.9,423.6 L1165.4,424.7 L1163.9,430.0 L1159.3,431.2 L1158.7,433.4 L1150.6,435.8 L1140.2,435.4 L1136.8,440.6 L1125.9,436.2 L1114.8,437.4 L1096.4,430.2 L1088.1,431.9 L1074.8,441.6 L1057.2,434.0 L1043.9,423.8 L1031.8,418.1 L1029.3,408.2 L1025.2,401.1 L1042.3,396.0 L1051.1,390.1 L1068.1,385.5 L1074.0,381.0 L1080.3,383.7 L1090.8,381.3 Z" fill="#d7e1e4"/><path class="country" data-name="N. Cyprus" d="M1509.8,758.9 L1511.5,758.8 L1514.9,753.1 L1532.0,753.4 L1553.5,746.3 L1537.5,756.4 L1539.2,760.8 L1536.7,760.0 L1532.1,761.8 L1528.6,761.3 L1527.4,762.2 L1527.0,759.8 L1525.3,758.4 L1520.7,758.1 L1514.3,760.1 L1509.8,758.9 Z" fill="#d7e1e4"/><path class="country" data-name="Cyprus" d="M1509.8,758.9 L1514.3,760.1 L1520.7,758.1 L1525.3,758.4 L1527.0,759.8 L1527.4,762.2 L1528.6,761.3 L1532.1,761.8 L1536.7,760.0 L1539.2,760.8 L1539.9,762.7 L1515.7,772.3 L1504.1,769.3 L1498.6,759.8 L1509.8,758.9 Z" fill="#d7e1e4"/><path class="country" data-name="Morocco" d="M684.3,758.2 L693.2,773.4 L694.7,787.8 L702.8,812.7 L709.1,817.8 L704.7,827.0 L673.8,830.9 L663.1,839.7 L649.4,841.8 L648.4,859.3 L620.7,868.6 L611.7,880.5 L592.3,886.8 L568.7,890.4 L530.5,907.9 L530.7,935.9 L527.1,935.9 L527.6,948.6 L513.0,949.3 L505.4,954.7 L494.7,954.7 L486.1,951.7 L466.2,954.2 L458.5,972.6 L451.1,974.4 L440.0,1004.2 L407.1,1029.7 L399.3,1062.4 L389.6,1073.0 L386.8,1081.5 L333.5,1083.4 L333.1,1083.4 L334.2,1072.4 L343.3,1066.0 L351.0,1053.6 L349.5,1045.6 L357.6,1028.9 L370.8,1013.9 L378.8,1010.1 L385.0,996.3 L385.6,983.7 L394.1,969.1 L409.9,960.4 L424.9,936.3 L425.3,936.0 L437.2,926.9 L459.2,924.3 L477.8,908.1 L489.7,901.8 L509.4,882.0 L503.5,852.6 L512.5,832.3 L515.7,819.8 L530.9,803.8 L554.6,793.0 L572.2,783.3 L588.0,758.8 L595.4,744.2 L612.8,744.4 L627.1,754.4 L649.6,752.8 L674.1,758.0 L684.3,758.2 Z" fill="#d7e1e4"/><path class="country" data-name="Bosnia and Herz." d="M1174.6,581.3 L1153.7,572.3 L1144.8,562.4 L1135.8,557.2 L1124.9,548.4 L1119.8,541.0 L1108.2,530.0 L1113.1,520.2 L1121.6,525.6 L1126.7,520.7 L1137.8,520.2 L1158.1,524.1 L1174.5,523.8 L1185.2,529.0 L1185.2,529.0 L1193.7,528.9 L1187.8,539.3 L1199.2,548.4 L1195.8,559.6 L1190.2,560.6 L1185.8,562.8 L1178.1,568.3 L1174.6,581.3 Z" fill="#d7e1e4"/><path class="country" data-name="North Macedonia" d="M1265.0,589.1 L1276.8,596.7 L1278.5,612.3 L1274.0,613.1 L1270.1,617.2 L1257.3,616.8 L1248.3,621.9 L1232.8,624.0 L1223.0,618.3 L1219.7,608.1 L1222.7,600.1 L1222.7,600.1 L1225.7,600.3 L1226.7,595.4 L1240.7,591.8 L1246.0,590.9 L1254.0,589.5 L1265.0,589.1 Z" fill="#d7e1e4"/><path class="country" data-name="Serbia" d="M1181.0,504.2 L1181.0,504.2 L1199.1,498.0 L1213.9,499.0 L1226.7,508.3 L1229.4,515.8 L1243.8,521.4 L1245.6,531.2 L1259.4,538.0 L1266.9,532.7 L1272.7,535.7 L1267.2,539.7 L1271.5,543.8 L1265.7,549.2 L1267.8,557.8 L1279.3,568.0 L1270.3,575.4 L1266.3,582.9 L1268.9,585.7 L1265.0,589.1 L1254.0,589.5 L1246.0,590.9 L1245.2,589.1 L1248.0,586.3 L1250.7,580.5 L1247.3,580.6 L1242.7,576.3 L1238.8,575.1 L1235.7,571.4 L1231.3,569.9 L1228.0,566.6 L1223.7,567.9 L1220.4,575.7 L1214.8,577.4 L1216.7,575.4 L1207.7,570.5 L1199.9,567.9 L1196.5,564.7 L1190.2,560.6 L1195.8,559.6 L1199.2,548.4 L1187.8,539.3 L1193.7,528.9 L1185.2,529.0 L1185.2,529.0 L1194.3,520.1 L1186.8,513.4 L1181.0,504.2 Z" fill="#d7e1e4"/><path class="country" data-name="Montenegro" d="M1210.4,582.7 L1204.0,584.8 L1202.5,580.4 L1192.2,592.0 L1193.8,599.5 L1188.9,597.7 L1182.3,590.0 L1172.0,585.3 L1174.6,581.3 L1178.1,568.3 L1185.8,562.8 L1190.2,560.6 L1196.5,564.7 L1199.9,567.9 L1207.7,570.5 L1216.7,575.4 L1214.8,577.4 L1210.4,582.7 Z" fill="#d7e1e4"/><path class="country" data-name="Kosovo" d="M1222.7,600.1 L1221.1,591.5 L1215.4,589.1 L1210.4,582.7 L1214.8,577.4 L1220.4,575.7 L1223.7,567.9 L1228.0,566.6 L1231.3,569.9 L1235.7,571.4 L1238.8,575.1 L1242.7,576.3 L1247.3,580.6 L1250.7,580.5 L1248.0,586.3 L1245.2,589.1 L1246.0,590.9 L1240.7,591.8 L1226.7,595.4 L1225.7,600.3 L1222.7,600.1 Z" fill="#d7e1e4"/>
  </g>

  <line class="callout-line" x1="384.0" y1="171.0" x2="738.5" y2="355.3"/><rect class="callout-box" x="52" y="130" width="332" height="82" rx="18"/><text class="callout-title" x="74" y="160">Cambridge, UK</text><text class="callout-detail" x="74" y="182">Dec 2021</text><text class="callout-detail" x="74" y="204">MSCA Training</text><line class="callout-line" x1="408.0" y1="298.0" x2="838.6" y2="387.3"/><rect class="callout-box" x="52" y="248" width="356" height="100" rx="18"/><text class="callout-title" x="74" y="278">Brussels, Belgium</text><text class="callout-detail" x="74" y="300">Mar 2022 - Jun 2022</text><text class="callout-detail" x="74" y="322">EU MSCA Academic Secondment, VUB</text><line class="callout-line" x1="394.0" y1="529.0" x2="937.7" y2="469.5"/><rect class="callout-box" x="52" y="486" width="342" height="86" rx="18"/><text class="callout-title" x="74" y="516">Zurich, Switzerland</text><text class="callout-detail" x="74" y="538">Jan 2025 - May 2025</text><text class="callout-detail" x="74" y="560">Postdoc at Empa</text><line class="callout-line" x1="394.0" y1="653.0" x2="892.5" y2="489.8"/><rect class="callout-box" x="52" y="610" width="342" height="86" rx="18"/><text class="callout-title" x="74" y="640">Lausanne, Switzerland</text><text class="callout-detail" x="74" y="662">Jun 2026 - Present</text><text class="callout-detail" x="74" y="684">Postdoc at EPFL</text><line class="callout-line" x1="1174.0" y1="186.0" x2="984.6" y2="353.8"/><rect class="callout-box" x="1174" y="136" width="370" height="100" rx="18"/><text class="callout-title" x="1196" y="166">Braunschweig, Germany</text><text class="callout-detail" x="1196" y="188">Jun 2023 - Sep 2023</text><text class="callout-detail" x="1196" y="210">EU MSCA Industrial Secondment</text><text class="callout-detail" x="1196" y="232">FormHand GmbH</text><line class="callout-line" x1="1174.0" y1="397.0" x2="1092.6" y2="469.5"/><rect class="callout-box" x="1174" y="354" width="324" height="86" rx="18"/><text class="callout-title" x="1196" y="384">Leoben, Austria</text><text class="callout-detail" x="1196" y="406">Jun 2023</text><text class="callout-detail" x="1196" y="428">MSCA Training</text><line class="callout-line" x1="1174.0" y1="583.0" x2="987.2" y2="557.4"/><rect class="callout-box" x="1174" y="540" width="324" height="86" rx="18"/><text class="callout-title" x="1196" y="570">Pontedera, Italy</text><text class="callout-detail" x="1196" y="592">Aug 2022</text><text class="callout-detail" x="1196" y="614">MSCA Training</text>
  <g class="pin" transform="translate(738.5,355.3)"><circle r="9"/><circle class="pin-inner" r="3.5"/></g><g class="pin" transform="translate(838.6,387.3)"><circle r="9"/><circle class="pin-inner" r="3.5"/></g><g class="pin" transform="translate(984.6,353.8)"><circle r="9"/><circle class="pin-inner" r="3.5"/></g><g class="pin" transform="translate(987.2,557.4)"><circle r="9"/><circle class="pin-inner" r="3.5"/></g><g class="pin" transform="translate(1092.6,469.5)"><circle r="9"/><circle class="pin-inner" r="3.5"/></g><g class="pin" transform="translate(937.7,469.5)"><circle r="9"/><circle class="pin-inner" r="3.5"/></g><g class="pin" transform="translate(892.5,489.8)"><circle r="9"/><circle class="pin-inner" r="3.5"/></g>

  <text class="legend-title" x="54" y="770">Colored countries visited in this European network</text>
  <rect x="86" y="792" width="22" height="22" rx="5" fill="#b84d45"/><text class="legend-text" x="118" y="808">United Kingdom</text><rect x="256" y="792" width="22" height="22" rx="5" fill="#4e79a7"/><text class="legend-text" x="288" y="808">Belgium</text><rect x="426" y="792" width="22" height="22" rx="5" fill="#f1d46b"/><text class="legend-text" x="458" y="808">Germany</text><rect x="86" y="830" width="22" height="22" rx="5" fill="#93bf75"/><text class="legend-text" x="118" y="846">Italy</text><rect x="256" y="830" width="22" height="22" rx="5" fill="#d88b4a"/><text class="legend-text" x="288" y="846">Austria</text><rect x="426" y="830" width="22" height="22" rx="5" fill="#6f91e8"/><text class="legend-text" x="458" y="846">Switzerland</text>
  <text class="credit" x="1240" y="856">Map geometry: Natural Earth Admin 0 countries</text>
</svg>
