<svg xmlns="http://www.w3.org/2000/svg" viewBox="0 0 640 420" role="img" aria-labelledby="title desc">
  <title id="title">Dexterous hands placeholder</title>
  <desc id="desc">A dummy research illustration of fingers above piano keys.</desc>
  <rect width="640" height="420" rx="36" fill="#eef1fb"/>
  <rect x="92" y="268" width="456" height="74" rx="16" fill="#ffffff" stroke="#d8d8d8" stroke-width="4"/>
  <g fill="#462d25" opacity=".85">
    <rect x="140" y="268" width="30" height="46" rx="4"/>
    <rect x="218" y="268" width="30" height="46" rx="4"/>
    <rect x="296" y="268" width="30" height="46" rx="4"/>
    <rect x="374" y="268" width="30" height="46" rx="4"/>
    <rect x="452" y="268" width="30" height="46" rx="4"/>
  </g>
  <path d="M164 104c48 54 64 98 48 132M258 80c34 62 42 108 24 156M352 82c-20 64-24 112-12 154M446 106c-40 48-54 92-42 130" fill="none" stroke="#c73a64" stroke-width="26" stroke-linecap="round"/>
</svg>
